<svg id="Layer_1" data-name="Layer 1" xmlns="http://www.w3.org/2000/svg" viewBox="0 0 236.07 328.56"><defs><style>.cls-1{fill:#f1eefd;}.cls-10,.cls-11,.cls-16,.cls-17,.cls-2,.cls-20,.cls-21,.cls-22,.cls-5,.cls-6{fill:none;stroke-miterlimit:10;}.cls-2{stroke:#c3c8ff;}.cls-3{fill:#6876eb;}.cls-4{fill:#1c145e;}.cls-5,.cls-6{stroke:#6876eb;}.cls-5{stroke-width:4px;}.cls-7{fill:#e9a394;}.cls-8{fill:#e37a82;}.cls-9{fill:#16005c;}.cls-10,.cls-11{stroke:#16005c;}.cls-10,.cls-17{stroke-width:2px;}.cls-11,.cls-21{stroke-width:0.5px;}.cls-12{fill:#1c145c;}.cls-13{fill:#fff;}.cls-14{fill:#5321d7;}.cls-15{fill:#6a3fdc;}.cls-16,.cls-21{stroke:#1c145e;}.cls-17,.cls-20{stroke:#7079f1;}.cls-18{fill:#7079f1;}.cls-19{fill:#c3c8ff;}.cls-22{stroke:#fff;}</style></defs><g id="BACKGROUND"><path class="cls-1" d="M-122.15,324.3s-32.69-77,8.66-135.13S-97.33,79.44-24.76,28.11c93.33-66,183.34-.88,210.18,43.25s118,21.61,91.52,147.2c-20.56,97.42-5.22,101.69-5.22,101.69Z"/><path class="cls-2" d="M-102.44,303.48s-58-30.32-44-98.48,70.87-84.32,94.29-79.32c43.89,9.38-27.82,37-44.95-10.44C-118.59,55.64-42,10.52,29.08,22.24c45.65,7.5,67.69,29.36,108.27,43.09s57.4-4.65,41.32-15.33c-15.3-10.08-70.82,6.37-51.76,28.92,26.11,30.87,89-17,137.78,36.3s6.43,120.21-31.06,125.8-21-48.23,37.49-5.59-15.45,88.87-15.45,88.87"/></g><g id="OBJECTS"><path class="cls-3" d="M-147.57,320H300.24v4.26a4.26,4.26,0,0,1-4.26,4.26H-147.57a4.27,4.27,0,0,1-4.26-4.22h0a4.26,4.26,0,0,1,4.22-4.3Z"/><path class="cls-4" d="M-151.83,320H16.09v4.26a4.26,4.26,0,0,1-4.26,4.26h-159.4a4.27,4.27,0,0,1-4.26-4.22V320Z"/><path class="cls-4" d="M78.09,157.51c-19,36.5-40.33,51.37-40.33,51.37l18.43,29.43,32.18-33.45Z"/><path class="cls-4" d="M125.19,148.8l-47.1,8.71C75.09,246.61,74,320,74,320h84.54S161,183.58,147.38,153.81Z"/><line class="cls-5" x1="119.72" y1="194.2" x2="142.66" y2="192.26"/><path class="cls-6" d="M109.19,175.06s14.56,99.37,1.89,139.58"/><path class="cls-6" d="M93.94,224.83a104.54,104.54,0,0,0,32.3,6.26c18.24.6,6.89,10.31-20.14,8.47"/><polygon class="cls-7" points="97.56 145.17 109.18 176.05 125.18 148.8 114.64 131.56 97.56 145.17"/><polygon class="cls-3" points="109.18 176.05 130.88 170.06 125.18 148.8 109.18 176.05"/><polygon class="cls-3" points="100.14 152.03 88.37 165.19 109.18 176.05 100.14 152.03"/><path class="cls-7" d="M56.19,238.31S63.06,224,48.3,205.49c-8.19-10.24-12-27.91-12-27.91L24,179.45l11.27,58.86Z"/><polygon class="cls-7" points="21.52 159.12 16.48 163.7 23.21 169.64 2.13 169.28 1.68 176.52 24.03 179.44 36.33 177.57 21.52 159.12"/><polygon class="cls-7" points="25.2 170.39 4.97 162.04 3.67 165.64 20.55 172.73 25.2 170.39"/><path class="cls-4" d="M147.38,153.81s27.18,15.47,35.76,73.44l-31.53,7.6Z"/><polygon class="cls-7" points="88.35 107.44 78.09 133.7 85.94 136.12 88.35 150.91 113.41 145.17 117.03 105.02 88.35 107.44"/><polygon class="cls-8" points="105.08 113.68 85.91 113.68 88 108.02 105.08 106.96 105.08 113.68"/><path class="cls-9" d="M115.09,125.68s-12.22-2.53-12.22-15.17c0,0-18.14,2.47-24.41-7.38-7.41-11.66,3.92-25.07,13.28-22.34,0,0-5.89,5.84,3.06,6.53,6.39.49,18.07-8,22.24.21,0,0,32.15,7.35,8.15,37.31Z"/><path class="cls-10" d="M102.87,109.49s-24.2,4.68-29.32-12.71c-3-10.16,7.22-16,7.22-16"/><circle class="cls-11" cx="92.6" cy="123.71" r="9.15"/><line class="cls-11" x1="101.26" y1="120.75" x2="114.3" y2="121.46"/><path class="cls-7" d="M130.88,128c0,5.67-7.59,10.26-13.26,10.26s-7.26-4.59-7.26-10.26a10.26,10.26,0,0,1,20.52,0v0Z"/><polygon class="cls-7" points="179.37 228.15 179.37 275.48 155.77 275.48 153.81 234.32 179.37 228.15"/><polygon class="cls-12" points="76.25 217.45 77.24 184.47 61.95 232.31 76.25 217.45"/><polygon class="cls-8" points="98.78 148.31 113.41 145.17 101.41 155.41 98.78 148.31"/><ellipse class="cls-9" cx="90.12" cy="124.31" rx="1.75" ry="3.65"/><path class="cls-9" d="M94.88,115.43c0-4.9-3.9-1.6-3.9-1.6Z"/><path class="cls-13" d="M91,137.1l5.58-1.48S99,156.3,91,137.1Z"/><path class="cls-14" d="M-29.16,229.79S8.46,224,9.2,289.56C9.32,300.2,16.09,320,16.09,320H-18Z"/><path class="cls-15" d="M-68.48,224l-22.74,5.36,6.94,90.7H4.17s-3-71.76-36.32-93.29Z"/><path class="cls-4" d="M-60.9,309.25h84a4.56,4.56,0,0,1,4.56,4.56v1.66A4.55,4.55,0,0,1,23.07,320H-56.34a4.56,4.56,0,0,1-4.56-4.56v-6.22h0Z"/><path class="cls-4" d="M91.27,246.88H-6.41a5.78,5.78,0,0,0-5.72,5L-20,313.5a5.77,5.77,0,0,0,5,6.44,5.65,5.65,0,0,0,.71.05H83.4a5.75,5.75,0,0,0,5.72-5L97,253.37a5.8,5.8,0,0,0-5.72-6.49Z"/><path class="cls-3" d="M96,246.88H-1.68a5.78,5.78,0,0,0-5.72,5l-7.87,61.62a5.76,5.76,0,0,0,5,6.44,6,6,0,0,0,.73.05H88.13a5.75,5.75,0,0,0,5.72-5l7.87-61.62a5.78,5.78,0,0,0-5-6.45A5.63,5.63,0,0,0,96,246.88Z"/><ellipse class="cls-13" cx="43.23" cy="283.43" rx="10.15" ry="9.14" transform="translate(-183.23 107.59) rotate(-43.5)"/><line class="cls-16" x1="93.86" y1="319.51" x2="-27.72" y2="319.51"/><path class="cls-9" d="M147.6,237.06l40.36.76-9.15-49.37-21.46,2.43s-9.67,14.27-2,25.36C163.93,228.76,146.67,229.23,147.6,237.06Z"/><path class="cls-17" d="M157.35,190.88s-9.67,14.27-2,25.36c8.62,12.52-8.6,13-7.71,20.82"/><path class="cls-18" d="M165.4,231.09S147,249.09,137.35,317h20.44Z"/><path class="cls-19" d="M213.93,226.07l-8,90.95H146.57L154,282.29s-22.61-11.8,11.44-51.2l8.46-4.35L210.67,224Z"/><path class="cls-20" d="M165.4,271.8s-3.56,6.09-.14,11l-5,34.23"/><line class="cls-20" x1="157.1" y1="282.44" x2="191.48" y2="283.46"/><line class="cls-20" x1="198.26" y1="299.56" x2="194.63" y2="255.82"/><path class="cls-19" d="M213.93,226.07s3.28,4.13,7.08,13.69c5.38,13.57,11.8,38.07,11.38,77.26H205.94Z"/><path class="cls-7" d="M232.39,320s-13.22-30.22-46.45-21.57c-36.3,9.44-49.77,7.68-49.77,7.68L133.42,320Z"/><path class="cls-18" d="M197.79,292.1,186,294.74,212.79,320H238S227.15,293.68,197.79,292.1Z"/><line class="cls-2" x1="198.52" y1="299.94" x2="204.14" y2="298.22"/><polygon class="cls-7" points="136.17 306.13 118.92 302.56 106.56 320.02 133.41 320.02 136.17 306.13"/><polygon class="cls-18" points="165.39 271.8 197.44 239.75 191.48 236.94 213.93 226.07 203.62 219.51 179.64 219.51 165.39 237.32 169.33 238.31 165.39 241.06 165.39 271.8"/><polygon class="cls-7" points="187.8 230.41 198.27 223.17 186.97 197.91 169.45 208.91 174.38 229.87 165.39 271.8 187.8 230.41"/><polygon class="cls-8" points="170.86 214.89 183.15 208.48 172.18 220.49 170.86 214.89"/><polygon class="cls-7" points="148.4 178.31 143.04 208.06 151.09 208.06 160.13 220.49 183.15 208.48 167.05 172.61 148.4 178.31"/><polygon class="cls-8" points="147.1 185.53 146.56 188.79 167.8 185.9 167.47 181.83 147.1 185.53"/><path class="cls-9" d="M207.09,176.06c-5.31-14.41-11.81-20-11.81-20-13-12.94-35.29,1.42-35.29,1.42C131.46,150.57,143,186,143,186l23.24-2.85c3.24,19.49,14.86,9.62,14.86,9.62l5.42,9.77s-5.46,4.83.23,13.12c4.7,6.82-6.54,9.14-3.64,16.4l44.92-9.31C228.07,193.23,216.67,202.1,207.09,176.06Z"/><path class="cls-17" d="M141.22,186.26s-4.11-20.23,3.44-26.81c3.93-3.43,16.33-1.94,16.33-1.94"/><path class="cls-10" d="M231,221.94s3.58-13.45-16-28.71"/><circle class="cls-7" cx="181.81" cy="194.15" r="9.68"/><path class="cls-13" d="M157.1,207l6-1.48S165.2,222.6,157.1,207Z"/><path class="cls-21" d="M152.1,196.86s1.91-11.64,6.09,0"/><path class="cls-9" d="M153.58,188s2.32-3.94,5.08,0Z"/><path class="cls-19" d="M63.32,83.19A17.93,17.93,0,1,0,38,105.05a25.85,25.85,0,0,1,9.29,8.4l.68,1,13.43-4.77-.12-1.21a26.82,26.82,0,0,1,1.89-12.59A17.79,17.79,0,0,0,63.32,83.19Z"/><path class="cls-19" d="M63.32,83.19A17.93,17.93,0,1,0,38,105.05a25.85,25.85,0,0,1,9.29,8.4l.68,1,13.43-4.77-.12-1.21a26.82,26.82,0,0,1,1.89-12.59A17.79,17.79,0,0,0,63.32,83.19Z"/><path class="cls-22" d="M51,110.51,40.29,95.4a2.84,2.84,0,0,1,3-2.66,2.53,2.53,0,0,1,.55.09c3.36.48,5.37,5.79,3,4.93s-3.25-7.09,1.29-8,6,9.36,3.55,7.37-2-8.55,2.88-8.61l2.85,21.79"/><rect class="cls-9" x="47.71" y="108.28" width="15.94" height="13.17" rx="4.62" transform="translate(-35.59 25.62) rotate(-19.78)"/><rect class="cls-3" x="44.62" y="107.3" width="20.19" height="9.86" transform="translate(-34.75 25.14) rotate(-19.78)"/><line class="cls-2" x1="45.99" y1="66.74" x2="44.09" y2="55.87"/><line class="cls-2" x1="32.29" y1="73.21" x2="23.22" y2="64.34"/><line class="cls-2" x1="22.83" y1="89.32" x2="12.48" y2="90.06"/><line class="cls-2" x1="60.92" y1="72.69" x2="65.58" y2="64.05"/><path class="cls-12" d="M206.76,152.54H271a5.07,5.07,0,0,0,4.78-4l6.63-36.62A3.27,3.27,0,0,0,280,108a3.53,3.53,0,0,0-.86-.08H214.87a5.07,5.07,0,0,0-4.78,4l-6.64,36.62a3.29,3.29,0,0,0,3.31,4Z"/><ellipse class="cls-13" cx="230.17" cy="130.2" rx="4.6" ry="3.84" transform="translate(-27.58 189.3) rotate(-42.41)"/><polygon class="cls-12" points="241.33 150.13 219.01 163.4 223.01 149.09 241.33 150.13"/><path class="cls-19" d="M-.15,147.11H-64.33a5.06,5.06,0,0,1-4.77-4l-6.64-36.62a3.28,3.28,0,0,1,2.48-3.92,3.29,3.29,0,0,1,.83-.08H-8.2a5.07,5.07,0,0,1,4.78,4l6.63,36.62A3.27,3.27,0,0,1,.74,147,3.32,3.32,0,0,1-.15,147.11Z"/></g></svg>